HIERARCHY
ROOT hip
{
  OFFSET -57.601 83.6361 -5.99253
  CHANNELS 6 Xposition Yposition Zposition Zrotation Xrotation Yrotation
  JOINT abdomen
  {
    OFFSET 0 20.6881 -0.73152
    CHANNELS 3 Zrotation Xrotation Yrotation
    JOINT chest
    {
      OFFSET 0 11.7043 -0.48768
      CHANNELS 3 Zrotation Xrotation Yrotation
      JOINT neck
      {
        OFFSET 0 22.1894 -2.19456
        CHANNELS 3 Zrotation Xrotation Yrotation
        JOINT head
        {
          OFFSET -0.24384 7.07133 1.2192
          CHANNELS 3 Zrotation Xrotation Yrotation
          JOINT leftEye
          {
            OFFSET 4.14528 8.04674 8.04672
            CHANNELS 3 Zrotation Xrotation Yrotation
            End Site
            {
              OFFSET 1 0 0
            }
          }
          JOINT rightEye
          {
            OFFSET -3.6576 8.04674 8.04672
            CHANNELS 3 Zrotation Xrotation Yrotation
            End Site
            {
              OFFSET 1 0 0
            }
          }
        }
      }
      JOINT rCollar
      {
        OFFSET -2.68224 19.2634 -4.8768
        CHANNELS 3 Zrotation Xrotation Yrotation
        JOINT rShldr
        {
          OFFSET -8.77824 -1.95073 1.46304
          CHANNELS 3 Zrotation Xrotation Yrotation
          JOINT rForeArm
          {
            OFFSET -28.1742 -1.7115 0.48768
            CHANNELS 3 Zrotation Xrotation Yrotation
            JOINT rHand
            {
              OFFSET -22.5879 0.773209 7.07136
              CHANNELS 3 Zrotation Xrotation Yrotation
              JOINT rThumb1
              {
                OFFSET -1.2192 -0.487915 3.41376
                CHANNELS 3 Zrotation Xrotation Yrotation
                JOINT rThumb2
                {
                  OFFSET -3.37035 -0.52449 3.41376
                  CHANNELS 3 Zrotation Xrotation Yrotation
                  End Site
                  {
                    OFFSET -1.78271 -1.18214 1.43049
                  }
                }
              }
              JOINT rIndex1
              {
                OFFSET -7.75947 0.938293 5.60832
                CHANNELS 3 Zrotation Xrotation Yrotation
                JOINT rIndex2
                {
                  OFFSET -2.54057 -0.884171 1.56538
                  CHANNELS 3 Zrotation Xrotation Yrotation
                  End Site
                  {
                    OFFSET -1.62519 -0.234802 1.16502
                  }
                }
              }
              JOINT rMid1
              {
                OFFSET -8.24714 1.18213 3.41376
                CHANNELS 3 Zrotation Xrotation Yrotation
                JOINT rMid2
                {
                  OFFSET -3.10165 -0.590103 1.0647
                  CHANNELS 3 Zrotation Xrotation Yrotation
                  End Site
                  {
                    OFFSET -2.48547 -0.328903 0.83742
                  }
                }
              }
              JOINT rRing1
              {
                OFFSET -8.82822 0.546677 1.51678
                CHANNELS 3 Zrotation Xrotation Yrotation
                JOINT rRing2
                {
                  OFFSET -2.60934 -0.819778 -0.0198488
                  CHANNELS 3 Zrotation Xrotation Yrotation
                  End Site
                  {
                    OFFSET -2.33842 -0.294052 0.168128
                  }
                }
              }
              JOINT rPinky1
              {
                OFFSET -8.27202 -0.0477905 -0.4584
                CHANNELS 3 Zrotation Xrotation Yrotation
                JOINT rPinky2
                {
                  OFFSET -1.82734 -0.647385 -0.700984
                  CHANNELS 3 Zrotation Xrotation Yrotation
                  End Site
                  {
                    OFFSET -1.69225 -0.51767 -0.607171
                  }
                }
              }
            }
          }
        }
      }
      JOINT lCollar
      {
        OFFSET 2.68224 19.2634 -4.8768
        CHANNELS 3 Zrotation Xrotation Yrotation
        JOINT lShldr
        {
          OFFSET 8.77824 -1.95073 1.46304
          CHANNELS 3 Zrotation Xrotation Yrotation
          JOINT lForeArm
          {
            OFFSET 28.1742 -1.7115 0.48768
            CHANNELS 3 Zrotation Xrotation Yrotation
            JOINT lHand
            {
              OFFSET 22.5879 0.773209 7.07136
              CHANNELS 3 Zrotation Xrotation Yrotation
              JOINT lThumb1
              {
                OFFSET 1.2192 -0.487915 3.41376
                CHANNELS 3 Zrotation Xrotation Yrotation
                JOINT lThumb2
                {
                  OFFSET 3.37035 -0.52449 3.41376
                  CHANNELS 3 Zrotation Xrotation Yrotation
                  End Site
                  {
                    OFFSET 1.78271 -1.18214 1.43049
                  }
                }
              }
              JOINT lIndex1
              {
                OFFSET 7.75947 0.938293 5.60832
                CHANNELS 3 Zrotation Xrotation Yrotation
                JOINT lIndex2
                {
                  OFFSET 2.54057 -0.884171 1.56538
                  CHANNELS 3 Zrotation Xrotation Yrotation
                  End Site
                  {
                    OFFSET 1.62519 -0.234802 1.16502
                  }
                }
              }
              JOINT lMid1
              {
                OFFSET 8.24714 1.18213 3.41376
                CHANNELS 3 Zrotation Xrotation Yrotation
                JOINT lMid2
                {
                  OFFSET 3.10165 -0.590103 1.0647
                  CHANNELS 3 Zrotation Xrotation Yrotation
                  End Site
                  {
                    OFFSET 2.48547 -0.328903 0.83742
                  }
                }
              }
              JOINT lRing1
              {
                OFFSET 8.82822 0.546677 1.51678
                CHANNELS 3 Zrotation Xrotation Yrotation
                JOINT lRing2
                {
                  OFFSET 2.60934 -0.819778 -0.0198488
                  CHANNELS 3 Zrotation Xrotation Yrotation
                  End Site
                  {
                    OFFSET 2.33842 -0.294052 0.168128
                  }
                }
              }
              JOINT lPinky1
              {
                OFFSET 8.27202 -0.0477905 -0.4584
                CHANNELS 3 Zrotation Xrotation Yrotation
                JOINT lPinky2
                {
                  OFFSET 1.82734 -0.647385 -0.700984
                  CHANNELS 3 Zrotation Xrotation Yrotation
                  End Site
                  {
                    OFFSET 1.69225 -0.51767 -0.607171
                  }
                }
              }
            }
          }
        }
      }
    }
  }
  JOINT rButtock
  {
    OFFSET -8.77824 4.35084 1.2192
    CHANNELS 3 Zrotation Xrotation Yrotation
    JOINT rThigh
    {
      OFFSET 0 -1.70687 -2.19456
      CHANNELS 3 Zrotation Xrotation Yrotation
      JOINT rShin
      {
        OFFSET 0 -36.8199 0.73152
        CHANNELS 3 Zrotation Xrotation Yrotation
        JOINT rFoot
        {
          OFFSET 0.73152 -45.1104 -5.12064
          CHANNELS 3 Zrotation Xrotation Yrotation
          End Site
          {
            OFFSET -1.1221 -3.69964 12.103
          }
        }
      }
    }
  }
  JOINT lButtock
  {
    OFFSET 8.77824 4.35084 1.2192
    CHANNELS 3 Zrotation Xrotation Yrotation
    JOINT lThigh
    {
      OFFSET 0 -1.70687 -2.19456
      CHANNELS 3 Zrotation Xrotation Yrotation
      JOINT lShin
      {
        OFFSET 0 -36.8199 0.73152
        CHANNELS 3 Zrotation Xrotation Yrotation
        JOINT lFoot
        {
          OFFSET -0.73152 -45.1104 -5.12064
          CHANNELS 3 Zrotation Xrotation Yrotation
          End Site
          {
            OFFSET 1.1221 -3.69964 12.103
          }
        }
      }
    }
  }
}
MOTION
Frames:	7
Frame Time:	0.00833333
-78.6743 85.1887 9.84145 -0.425116 -0.0010591 0.00725665 0.559351 -0.00286671 0.0159889 0.154366 -0.00442833 0.0267461 1.74072e-015 0 -5.59082e-017 4.86712e-015 3.18055e-015 -1.87914e-016 -0 0 0 -0 0 0 8.93261e-016 4.65902e-018 9.93923e-017 1.90598e-014 1.86361e-017 1.98785e-016 2.91667e-013 -8.32908e-014 6.36111e-015 3.31919e-012 9.88208e-014 -1.43125e-013 7.82911e-012 3.44036e-014 -2.83069e-013 1.35114e-011 5.725e-014 -4.8583e-013 7.83371e-012 3.49861e-014 -2.95792e-013 7.73091 5.47488 0.417314 7.82953e-012 3.43897e-014 -2.76708e-013 2.90554 0.965183 0.102902 7.84055e-012 3.45885e-014 -2.79889e-013 10.2786 0.731801 0.0259123 7.82039e-012 3.53837e-014 -2.70347e-013 2.22167 -0.733487 -0.20892 7.96465e-016 4.65902e-018 -1.98785e-016 1.51394e-014 -9.31803e-017 -1.39149e-015 2.92064e-013 8.66701e-014 -3.49861e-014 3.31983e-012 -8.5378e-014 -9.22361e-014 7.83459e-012 4.60923e-015 -2.79889e-013 1.35337e-011 3.18055e-015 -4.8901e-013 7.83092e-012 5.1684e-015 -2.70347e-013 -7.73091 5.47488 -0.417314 7.83609e-012 4.47265e-015 -2.8625e-013 -2.90554 0.965183 -0.102902 7.82534e-012 4.96962e-015 -2.83865e-013 -10.2786 0.731801 -0.0259123 7.83887e-012 6.36111e-015 -2.92611e-013 -2.22167 -0.733487 0.20892 -2.03217e-016 0 -3.88251e-019 0.922986 -4.50513 -0.0770313 -0.00206825 2.60854 -0.00962922 -0.502453 1.89677 0.095941 2.03217e-016 0 3.88251e-019 -0.0712536 -2.35215 0.0224559 0.00807201 -1.29119 0.0691991 0.494624 3.64342 -0.130519 
-75.3551 84.4941 6.83081 -2.49388 -0.533788 23.1114 1.66798 -2.13887 0.986186 -0.210758 0.481956 0.292168 -1.02484 3.12958 -2.54606 1.13394 -6.08914 -4.7771 -0 0 0 -0 0 0 -6.3692e-015 5.13702e-013 -1.31811e-014 24.8063 3.68868 -0.481534 -3.95836 -1.7495 6.23476 0.114397 7.51498 1.02365 3.96011e-010 3.03175e-011 -9.78697e-011 6.81332e-010 5.31948e-011 -1.77457e-010 3.96021e-010 3.03188e-011 -9.78883e-011 7.73091 5.47488 0.417314 3.96012e-010 3.03171e-011 -9.7867e-011 2.90554 0.965183 0.102902 3.96022e-010 3.03168e-011 -9.78691e-011 10.2786 0.731801 0.0259123 3.96003e-010 3.03173e-011 -9.78607e-011 2.22167 -0.733487 -0.20892 -6.46136e-015 5.13699e-013 -1.34828e-014 -24.6797 5.05927 -0.978807 4.08451 -1.82974 -6.40768 -7.43305e-006 -0.0961937 0.0135191 1.70104e-010 -2.21294e-010 3.08418e-010 2.94985e-010 -3.83012e-010 5.32183e-010 1.701e-010 -2.21293e-010 3.08427e-010 -7.73091 5.47488 -0.417314 1.70105e-010 -2.21294e-010 3.08414e-010 -2.90554 0.965183 -0.102902 1.70097e-010 -2.21293e-010 3.08414e-010 -10.2786 0.731801 -0.0259123 1.70108e-010 -2.21292e-010 3.08405e-010 -2.22167 -0.733487 0.20892 -2.03217e-016 0 -3.88251e-019 0.745014 -6.75638 1.91509 0.000803349 5.2684 0.0468479 -0.721516 -1.45107 -3.00893 2.03217e-016 0 3.88251e-019 0.728264 -3.91849 -1.17353 -0.0029589 1.4603 -0.0129642 0.709294 -2.37944 2.1822 
-75.3457 84.5384 6.6375 -4.15911 -0.642859 47.5124 2.91103 -4.31371 2.03371 -0.605734 0.970882 0.578301 -1.80865 6.41723 -5.26272 1.21689 -12.3906 -10.0049 -0 0 0 -0 0 0 -1.40232e-014 1.04673e-012 -2.71403e-014 51.0973 7.59027 -0.991312 -7.7354 -3.53251 12.8504 -0.0664944 15.4432 2.16489 8.48079e-010 6.54679e-011 -2.2606e-010 1.45878e-009 1.14855e-010 -4.08675e-010 8.48095e-010 6.54701e-011 -2.26085e-010 7.73091 5.47488 0.417314 8.48081e-010 6.54673e-011 -2.26061e-010 2.90554 0.965183 0.102902 8.4809e-010 6.54664e-011 -2.26062e-010 10.2786 0.731801 0.0259123 8.48072e-010 6.54664e-011 -2.26055e-010 2.22167 -0.733487 -0.20892 -1.41119e-014 1.04672e-012 -2.74478e-014 -50.5812 10.4129 -2.05028 7.96309 -3.6896 -13.2065 4.26609e-005 -0.206508 0.0290229 3.42303e-010 -4.61792e-010 6.83588e-010 5.93766e-010 -7.99206e-010 1.1797e-009 3.42299e-010 -4.61791e-010 6.83598e-010 -7.73091 5.47488 -0.417314 3.42303e-010 -4.6179e-010 6.83587e-010 -2.90554 0.965183 -0.102902 3.42299e-010 -4.6179e-010 6.83585e-010 -10.2786 0.731801 -0.0259123 3.42307e-010 -4.61789e-010 6.83575e-010 -2.22167 -0.733487 0.20892 -2.03217e-016 0 -3.88251e-019 0.713788 -9.08716 4.04219 -0.00192678 8.09689 0.107369 -1.34341 -4.96349 -6.2759 2.03217e-016 0 3.88251e-019 1.48229 -5.51761 -2.44865 -0.00610742 4.36297 -0.100341 1.47716 -8.73129 4.70968 
-75.34 84.5873 6.46487 -5.68787 -0.61413 69.3253 4.10331 -6.40344 2.9429 -0.954529 1.45459 0.823247 -2.23338 9.31413 -7.72928 0.26308 -17.7475 -14.9786 -0 0 0 -0 0 0 -2.08941e-014 1.5411e-012 -3.97422e-014 74.6079 11.0629 -1.46891 -10.7517 -5.0004 18.7696 -0.518452 22.5149 3.29603 1.17238e-009 9.08836e-011 -2.93043e-010 2.01697e-009 1.5947e-010 -5.314e-010 1.1724e-009 9.08864e-011 -2.93073e-010 7.73091 5.47488 0.417314 1.17238e-009 9.08826e-011 -2.93048e-010 2.90554 0.965183 0.102902 1.17239e-009 9.08814e-011 -2.93048e-010 10.2786 0.731801 0.0259123 1.17237e-009 9.08811e-011 -2.93041e-010 2.22167 -0.733487 -0.20892 -2.0977e-014 1.54109e-012 -4.00508e-014 -73.5048 15.1598 -3.03054 11.0471 -5.21517 -19.2962 0.000113885 -0.288581 0.0405578 4.94642e-010 -6.63892e-010 9.25812e-010 8.57889e-010 -1.14904e-009 1.59753e-009 4.94638e-010 -6.6389e-010 9.25822e-010 -7.73091 5.47488 -0.417314 4.94641e-010 -6.63889e-010 9.25814e-010 -2.90554 0.965183 -0.102902 4.94639e-010 -6.63889e-010 9.2581e-010 -10.2786 0.731801 -0.0259123 4.94645e-010 -6.63888e-010 9.25799e-010 -2.22167 -0.733487 0.20892 -2.03217e-016 0 -3.88251e-019 0.86616 -11.2105 5.97333 -0.00942922 10.5881 0.161946 -2.25152 -8.04681 -9.30813 2.03217e-016 0 3.88251e-019 2.1299 -7.03996 -3.58428 -0.00124592 6.96325 -0.17856 2.62881 -14.3266 7.02086 
-75.3372 84.632 6.29608 -7.00494 -0.332305 84.6597 5.02067 -8.28747 3.49294 -1.1789 1.92539 0.965055 -2.35624 11.3052 -9.48386 -1.02782 -21.2384 -18.6958 -0 0 0 -0 0 0 -2.58073e-014 1.93881e-012 -4.89507e-014 91.0368 13.4658 -1.84352 -12.6551 -5.9187 22.885 -1.0249 27.4736 4.19084 1.17724e-009 9.19626e-011 -2.0701e-010 2.02705e-009 1.6147e-010 -3.82897e-010 1.17727e-009 9.19653e-011 -2.07041e-010 7.73091 5.47488 0.417314 1.17725e-009 9.19613e-011 -2.07016e-010 2.90554 0.965183 0.102902 1.17725e-009 9.19598e-011 -2.07015e-010 10.2786 0.731801 0.0259123 1.17724e-009 9.19594e-011 -2.0701e-010 2.22167 -0.733487 -0.20892 -2.58784e-014 1.9388e-012 -4.92489e-014 -89.3777 18.4078 -3.68996 12.9898 -6.16749 -23.5428 0.00011042 -0.300051 0.0421698 5.97328e-010 -7.69996e-010 8.35672e-010 1.03536e-009 -1.33299e-009 1.44115e-009 5.97324e-010 -7.69994e-010 8.35681e-010 -7.73091 5.47488 -0.417314 5.97327e-010 -7.69994e-010 8.35675e-010 -2.90554 0.965183 -0.102902 5.97326e-010 -7.69993e-010 8.3567e-010 -10.2786 0.731801 -0.0259123 5.97331e-010 -7.69993e-010 8.35659e-010 -2.22167 -0.733487 0.20892 -2.03217e-016 0 -3.88251e-019 1.15213 -12.856 7.35693 -0.0172657 12.2361 0.199717 -3.12429 -10.151 -11.6619 2.03217e-016 0 3.88251e-019 2.64165 -8.37989 -4.35729 0.00679122 8.80755 -0.23243 3.63873 -18.1365 8.5555 
-75.3789 84.8012 6.4908 -8.11931 0.120036 90.9465 5.49742 -10.0151 3.50275 -1.21907 2.41773 0.953377 -2.31425 12.0939 -10.1815 -1.74382 -22.4839 -20.2315 -0 0 0 -0 0 0 -2.97609e-014 2.38942e-012 -5.73606e-014 97.5004 14.3668 -2.06662 -13.3279 -6.22883 24.4318 -1.28098 29.5039 4.58861 7.10508e-010 6.19088e-011 1.15629e-010 1.22803e-009 1.08834e-010 1.84457e-010 7.10527e-010 6.19103e-011 1.15602e-010 7.73091 5.47488 0.417314 7.1051e-010 6.1907e-011 1.15623e-010 2.90554 0.965183 0.102902 7.10519e-010 6.19056e-011 1.15625e-010 10.2786 0.731801 0.0259123 7.10504e-010 6.19055e-011 1.15631e-010 2.22167 -0.733487 -0.20892 -2.98088e-014 2.38941e-012 -5.76274e-014 -95.5723 19.576 -3.81165 13.6938 -6.5014 -25.1792 4.75438e-005 -0.221782 0.0311692 6.40581e-010 -7.82493e-010 2.23941e-010 1.10892e-009 -1.35541e-009 3.8352e-010 6.40576e-010 -7.82491e-010 2.23949e-010 -7.73091 5.47488 -0.417314 6.4058e-010 -7.82491e-010 2.23946e-010 -2.90554 0.965183 -0.102902 6.40578e-010 -7.82491e-010 2.2394e-010 -10.2786 0.731801 -0.0259123 6.40583e-010 -7.8249e-010 2.2393e-010 -2.22167 -0.733487 0.20892 -2.03217e-016 0 -3.88251e-019 1.51065 -13.9048 7.9473 -0.0202411 12.6752 0.212451 -3.62172 -10.9582 -13.0546 2.03217e-016 0 3.88251e-019 3.0576 -9.54504 -4.61297 0.011718 9.5969 -0.250671 3.91341 -19.5192 8.77358 
-75.4139 84.9145 6.47563 -9.04169 0.170565 90.7901 5.62285 -11.6271 3.12269 -1.12504 2.92362 0.832406 -2.21862 12.0378 -10.1066 -1.79502 -22.2343 -20.0902 -0 0 0 -0 0 0 -3.29444e-014 2.86883e-012 -6.50119e-014 96.8284 14.196 -2.17567 -13.1924 -6.14984 24.1349 -1.26736 29.4494 4.57552 -9.19234e-011 9.47749e-012 6.06206e-010 -1.46918e-010 1.69313e-011 1.04913e-009 -9.19107e-011 9.47677e-012 6.06188e-010 7.73091 5.47488 0.417314 -9.19216e-011 9.4749e-012 6.06203e-010 2.90554 0.965183 0.102902 -9.19124e-011 9.47396e-012 6.06204e-010 10.2786 0.731801 0.0259123 -9.1928e-011 9.47445e-012 6.06211e-010 2.22167 -0.733487 -0.20892 -3.2961e-014 2.86883e-012 -6.52324e-014 -94.8913 19.2611 -3.53309 13.5886 -6.44384 -24.9403 1.82898e-005 -0.0789803 0.011099 6.40902e-010 -7.26185e-010 -7.57674e-010 1.10742e-009 -1.2591e-009 -1.31323e-009 6.40896e-010 -7.26184e-010 -7.57668e-010 -7.73091 5.47488 -0.417314 6.409e-010 -7.26185e-010 -7.57668e-010 -2.90554 0.965183 -0.102902 6.40895e-010 -7.26185e-010 -7.57673e-010 -10.2786 0.731801 -0.0259123 6.40903e-010 -7.26183e-010 -7.57683e-010 -2.22167 -0.733487 0.20892 -2.03217e-016 0 -3.88251e-019 1.87793 -14.5338 7.95961 -0.0186849 12.252 0.207023 -3.75867 -10.8633 -13.7351 2.03217e-016 0 3.88251e-019 3.42552 -10.5841 -4.49602 0.0126322 9.63257 -0.2431 3.56095 -19.1841 8.0046 
